<svg width="48" height="48" viewBox="0 0 48 48" fill="none" xmlns="http://www.w3.org/2000/svg">
<path d="M24.0435 0.179932C10.8149 0.179932 0.0878906 11.0878 0.0878906 24.5445C0.0878906 35.3096 6.95189 44.4426 16.4702 47.6643C17.6674 47.8899 18.1069 47.1358 18.1069 46.4922C18.1069 45.9112 18.0847 43.9919 18.0744 41.956C11.4099 43.4299 10.0037 39.0812 10.0037 39.0812C8.91394 36.265 7.34382 35.5161 7.34382 35.5161C5.17034 34.0039 7.50766 34.035 7.50766 34.035C9.91321 34.2065 11.1799 36.5458 11.1799 36.5458C13.3165 40.2707 16.784 39.1938 18.151 38.5712C18.366 36.9969 18.9868 35.9212 19.6719 35.3132C14.351 34.6971 8.75764 32.6079 8.75764 23.2719C8.75764 20.6118 9.69344 18.4383 11.2259 16.732C10.9771 16.1179 10.1572 13.6402 11.4579 10.2841C11.4579 10.2841 13.4696 9.62928 18.0474 12.7816C19.9583 12.2418 22.0076 11.971 24.0435 11.9618C26.0793 11.971 28.1302 12.2418 30.0447 12.7816C34.6169 9.62928 36.6258 10.2841 36.6258 10.2841C37.9297 13.6402 37.1094 16.1179 36.8606 16.732C38.3966 18.4383 39.3261 20.6118 39.3261 23.2719C39.3261 32.6301 33.722 34.6906 28.3877 35.2938C29.2469 36.0499 30.0125 37.5327 30.0125 39.8059C30.0125 43.0655 29.9848 45.6893 29.9848 46.4922C29.9848 47.1406 30.416 47.9003 31.6302 47.6611C41.1434 44.4357 47.9986 35.3059 47.9986 24.5445C47.9986 11.0878 37.2732 0.179932 24.0435 0.179932" fill="black"/>
<path d="M9.16109 35.1623C9.10833 35.2838 8.92109 35.3197 8.75051 35.2366C8.57676 35.1571 8.47918 34.9921 8.53551 34.8706C8.58708 34.746 8.77471 34.7117 8.94807 34.7944C9.12222 34.8743 9.22139 35.0409 9.16109 35.1623" fill="black"/>
<path d="M10.1318 36.263C10.0175 36.3707 9.79419 36.3207 9.64266 36.1504C9.48596 35.9806 9.45661 35.7534 9.57244 35.6441C9.69026 35.5363 9.90685 35.5868 10.0639 35.7566C10.2206 35.9285 10.2512 36.1541 10.1318 36.263" fill="black"/>
<path d="M11.0765 37.6662C10.9297 37.7699 10.6897 37.6726 10.5413 37.456C10.3946 37.2393 10.3946 36.9795 10.5445 36.8754C10.6933 36.7713 10.9297 36.8649 11.08 37.0799C11.2264 37.2998 11.2264 37.5601 11.0765 37.6662" fill="black"/>
<path d="M12.3707 39.0219C12.2394 39.1692 11.9598 39.1297 11.7551 38.9287C11.5456 38.7322 11.4873 38.4534 11.619 38.3062C11.7519 38.1585 12.0332 38.2001 12.2394 38.3994C12.4473 38.5955 12.5108 38.8763 12.3707 39.0219" fill="black"/>
<path d="M14.1544 39.8091C14.0965 40 13.8271 40.0867 13.5558 40.0056C13.2848 39.9221 13.1075 39.6986 13.1623 39.5057C13.2186 39.3137 13.4891 39.2233 13.7625 39.31C14.033 39.3932 14.2107 39.6151 14.1544 39.8091" fill="black"/>
<path d="M16.1154 39.9551C16.1221 40.156 15.892 40.3227 15.6072 40.3259C15.3208 40.3327 15.0891 40.1701 15.0859 39.9724C15.0859 39.7695 15.3109 39.6045 15.5973 39.5996C15.8821 39.594 16.1154 39.7554 16.1154 39.9551" fill="black"/>
<path d="M17.9393 39.6392C17.9735 39.8353 17.7755 40.0366 17.4927 40.0899C17.2146 40.1419 16.9571 40.0209 16.9218 39.8264C16.8873 39.6255 17.0888 39.4241 17.3665 39.3721C17.6498 39.3221 17.9032 39.4399 17.9393 39.6392" fill="black"/>
</svg>
