<svg width="48" height="48" viewBox="0 0 48 48" fill="none" xmlns="http://www.w3.org/2000/svg">
<path fill-rule="evenodd" clip-rule="evenodd" d="M0 24C0 37.2548 10.7452 48 24 48C37.2548 48 48 37.2548 48 24C48 10.7452 37.2548 0 24 0C10.7452 0 0 10.7452 0 24ZM32.9432 15.0905C33.0442 15.1074 33.1789 15.1747 33.1958 15.3263C33.2059 15.4172 34.3229 22.972 35.2165 29.0158C35.814 33.0571 36.3116 36.4227 36.3116 36.4295L27.4863 38.3326L11.2 35.2842C11.2 35.2842 13.2884 19.1158 13.3726 18.5263C13.4737 17.7684 13.5074 17.7516 14.2989 17.4989C14.372 17.4807 14.7021 17.3784 15.2171 17.2188C15.6525 17.0838 16.22 16.908 16.8758 16.7074C17.4316 14.3663 19.1832 9.76842 22.8716 9.75158C23.3432 9.75158 23.8989 10.0211 24.3537 10.6105H24.4884C26.0716 10.6105 26.9811 11.9579 27.4695 13.4232C27.9916 13.2547 28.3116 13.1537 28.3284 13.1537C28.4632 13.12 28.7832 13.0695 28.9516 13.2379C29.1032 13.4063 30.6358 14.9221 30.6358 14.9221C30.6358 14.9221 32.8421 15.0737 32.9432 15.0905Z" fill="black"/>
<path d="M26.5773 13.7095C26.1731 13.8442 25.7015 13.979 25.1962 14.1306V13.8274C25.1962 12.9179 25.0615 12.1769 24.8594 11.6042C25.6846 11.7221 26.2404 12.6485 26.5773 13.7095Z" fill="black"/>
<path d="M23.8645 11.7896C24.0834 12.3622 24.235 13.1706 24.235 14.2653V14.4169C23.3424 14.6864 22.3655 14.9896 21.3887 15.2927C21.9445 13.2043 22.9718 12.1769 23.8645 11.7896Z" fill="black"/>
<path d="M22.7702 10.7622C22.9218 10.7622 23.0902 10.8127 23.2418 10.9138C22.0629 11.4696 20.7997 12.8675 20.2607 15.6633C19.486 15.899 18.7113 16.1348 18.0039 16.3538C18.6439 14.2317 20.126 10.7622 22.7702 10.7622Z" fill="black"/>
<path d="M24.4875 19.9748L23.3927 23.2084C23.3927 23.2084 22.4327 22.7032 21.2706 22.7032C19.5527 22.7032 19.4685 23.7811 19.4685 24.0505C19.4685 25.5327 23.3254 26.0884 23.3254 29.5579C23.3254 32.2863 21.5906 34.0379 19.2664 34.0379C16.4706 34.0379 15.0391 32.3032 15.0391 32.3032L15.7801 29.8274C15.7801 29.8274 17.2454 31.0905 18.4917 31.0905C19.3001 31.0905 19.637 30.4505 19.637 29.979C19.637 28.0421 16.4706 27.9579 16.4706 24.7916C16.4706 22.1305 18.3906 19.5369 22.2475 19.5369C23.7633 19.5537 24.4875 19.9748 24.4875 19.9748Z" fill="black"/>
</svg>
