<svg id="Capa_1" enable-background="new 0 0 512 512" height="512" viewBox="0 0 512 512" width="512" xmlns="http://www.w3.org/2000/svg"><g><g><path d="m7.5 127.71h497v323.252h-497z" fill="#3d4fc3"/></g><g><path d="m480.256 127.71h24.244v323.252h-24.244z" fill="#3342aa"/></g><g><path d="m177.207 127.71 7.499-49.494c1.496-9.876 9.986-17.177 19.975-17.177h102.637c9.989 0 18.479 7.3 19.975 17.177l7.499 49.494z" fill="#2b3890"/></g><g><path d="m239.837 77.202h32.325v68.691h-32.325z" fill="#f6e781" transform="matrix(0 1 -1 0 367.548 -144.453)"/></g><g><circle cx="256" cy="309.539" fill="#2b3890" r="141.423"/></g><g><circle cx="256" cy="309.539" fill="#e4f6ff" r="109.098"/></g><g><path d="m320.906 221.905c13.478 18.151 21.463 40.612 21.463 64.906 0 60.156-48.941 109.098-109.098 109.098-24.293 0-46.755-7.985-64.906-21.463 19.897 26.795 51.771 44.192 87.634 44.192 60.157 0 109.098-48.941 109.098-109.098.001-35.864-17.396-67.738-44.191-87.635z" fill="#e4f6ff"/></g><g><circle cx="62.049" cy="190.34" fill="#dd5790" r="22.224"/></g><g><path d="m69.763 169.494c.89 2.403 1.377 5.001 1.377 7.714 0 12.274-9.95 22.224-22.224 22.224-2.713 0-5.311-.488-7.714-1.377 3.136 8.471 11.285 14.509 20.846 14.509 12.274 0 22.224-9.95 22.224-22.224 0-9.561-6.038-17.71-14.509-20.846z" fill="#da387d"/></g><g><path d="m415.606 155.995h44.447v68.691h-44.447z" fill="#e4f6ff" transform="matrix(0 1 -1 0 628.17 -247.489)"/></g><g><path d="m411.565 77.202h32.325v68.691h-32.325z" fill="#2b3890" transform="matrix(0 1 -1 0 539.275 -316.18)"/></g><g><path d="m101.82 127.711h16.8v-32.33h-68.69v32.33h16.79z" fill="#2b3890"/></g><g><path d="m472.175 374.771h-34.346c-4.143 0-7.5 3.358-7.5 7.5s3.357 7.5 7.5 7.5h34.346c4.143 0 7.5-3.358 7.5-7.5s-3.358-7.5-7.5-7.5z"/><path d="m437.829 424.116h34.346c4.143 0 7.5-3.358 7.5-7.5s-3.357-7.5-7.5-7.5h-34.346c-4.143 0-7.5 3.358-7.5 7.5s3.358 7.5 7.5 7.5z"/><path d="m74.171 374.771h-34.346c-4.143 0-7.5 3.358-7.5 7.5s3.357 7.5 7.5 7.5h34.346c4.143 0 7.5-3.358 7.5-7.5s-3.358-7.5-7.5-7.5z"/><path d="m74.171 409.116h-34.346c-4.143 0-7.5 3.358-7.5 7.5s3.357 7.5 7.5 7.5h34.346c4.143 0 7.5-3.358 7.5-7.5s-3.358-7.5-7.5-7.5z"/><path d="m504.5 120.211h-34.927v-24.826c0-4.142-3.357-7.5-7.5-7.5h-68.691c-4.143 0-7.5 3.358-7.5 7.5v24.826h-44.64l-6.533-43.119c-2.068-13.647-13.588-23.553-27.391-23.553h-102.636c-13.803 0-25.322 9.905-27.391 23.553l-6.533 43.118h-44.64v-24.825c0-4.142-3.357-7.5-7.5-7.5h-68.691c-4.143 0-7.5 3.358-7.5 7.5v24.826h-34.927c-4.143 0-7.5 3.358-7.5 7.5v323.25c0 4.142 3.357 7.5 7.5 7.5h395.23c4.143 0 7.5-3.358 7.5-7.5s-3.357-7.5-7.5-7.5h-81.634c49.584-24.2 83.826-75.135 83.826-133.921 0-82.116-66.807-148.923-148.923-148.923s-148.923 66.807-148.923 148.923c0 58.787 34.242 109.722 83.826 133.921h-175.902v-308.25h51.72c4.143 0 7.5-3.358 7.5-7.5s-3.357-7.5-7.5-7.5h-9.293v-17.326h53.691v17.326h-9.298c-4.143 0-7.5 3.358-7.5 7.5s3.357 7.5 7.5 7.5h395.18v308.25h-59.17c-4.143 0-7.5 3.358-7.5 7.5s3.357 7.5 7.5 7.5h66.67c4.143 0 7.5-3.358 7.5-7.5v-323.25c0-4.142-3.357-7.5-7.5-7.5zm-103.618-17.326h53.691v17.325h-53.691zm-278.805 206.654c0-73.845 60.077-133.923 133.923-133.923s133.923 60.078 133.923 133.923c0 73.807-60.015 133.859-133.807 133.921h-.231c-73.793-.062-133.808-60.114-133.808-133.921zm70.044-230.199c.949-6.258 6.231-10.801 12.561-10.801h102.637c6.329 0 11.611 4.542 12.561 10.8l6.192 40.871h-28.226v-24.825c0-4.142-3.357-7.5-7.5-7.5h-68.691c-4.143 0-7.5 3.358-7.5 7.5v24.826h-28.226zm37.033 40.87v-17.325h53.691v17.325z"/><path d="m372.6 309.541c0-64.293-52.307-116.6-116.6-116.6-24.545 0-48.042 7.574-67.951 21.903-3.362 2.419-4.126 7.106-1.706 10.469 2.419 3.362 7.108 4.126 10.468 1.706 17.342-12.481 37.809-19.078 59.189-19.078 56.022 0 101.6 45.578 101.6 101.6s-45.577 101.6-101.6 101.6-101.6-45.578-101.6-101.6c0-21.532 6.684-42.122 19.329-59.545 2.434-3.352 1.688-8.042-1.664-10.475-3.354-2.434-8.042-1.688-10.475 1.665-14.518 20.001-22.19 43.638-22.19 68.355 0 64.293 52.307 116.6 116.6 116.6s116.6-52.307 116.6-116.6z"/><path d="m91.772 190.34c0-16.39-13.334-29.724-29.724-29.724s-29.723 13.334-29.723 29.724 13.334 29.724 29.724 29.724 29.723-13.334 29.723-29.724zm-29.723 14.724c-8.118 0-14.724-6.605-14.724-14.724s6.605-14.724 14.724-14.724 14.724 6.605 14.724 14.724-6.606 14.724-14.724 14.724z"/><path d="m479.675 168.116c0-4.142-3.357-7.5-7.5-7.5h-68.691c-4.143 0-7.5 3.358-7.5 7.5v44.447c0 4.142 3.357 7.5 7.5 7.5h68.691c4.143 0 7.5-3.358 7.5-7.5zm-15 36.948h-53.691v-29.447h53.691z"/></g></g></svg>