<svg id="Layer_1" enable-background="new 0 0 510 510" height="512" viewBox="0 0 510 510" width="512" xmlns="http://www.w3.org/2000/svg"><g><path id="XMLID_3988_" d="m389.274 360-104.274-53.295v53.295c0 11.08-6.042 20.769-15 25.964-4.416 2.561-9.537 4.036-15 4.036s-10.584-1.475-15-4.036c-8.958-5.195-15-14.884-15-25.964v-53.295l-104.274 47.397c-55.114 25.052-90.726 80.358-90.726 140.898v15h210 15l15-15 195-15v-15c-22-53.5-20.612-79.948-75.726-105z" fill="#65b2fe"/><path id="XMLID_3865_" d="m389.274 354.103-104.274-47.398v53.295c0 11.08-6.042 20.769-15 25.964-4.416 2.561-9.537 4.036-15 4.036v120h15 210v-15c0-60.54-35.612-115.846-90.726-140.897z" fill="#467ce8"/><path id="XMLID_4270_" d="m255 405c24.853 0 30-20.147 30-45v-30-30c-13.64 6.48-13.895 0-30 0-16.105 0-31.36-3.631-45-10.11v40.11 30c0 24.853 20.148 45 45 45z" fill="#ffbb85"/><path id="XMLID_3980_" d="m255 300v105c24.853 0 45-20.147 45-45v-30-40.11c-13.64 6.479-28.895 10.11-45 10.11z" fill="#f7a974"/><path id="XMLID_4329_" d="m345 75-90 15h-105v-90h105l90 15z" fill="#3b6bab"/><path id="XMLID_3862_" d="m255 0h105v90h-105z" fill="#00467d"/><path id="XMLID_4326_" d="m135 180h-45c-24.813 0-45-20.187-45-45s20.187-45 45-45h45z" fill="#3b6bab"/><path id="XMLID_4323_" d="m420 180h-45v-90h45c24.814 0 45 20.187 45 45s-20.186 45-45 45z" fill="#00467d"/><path id="XMLID_4338_" d="m255 315c-66.168 0-120-53.832-120-120 .055 0 120-15 120-15s104.924 15 105 15c0 66.168-79 120-105 120z" fill="#fdd1a3"/><path id="XMLID_3867_" d="m255 180v135c66.168 0 120-53.832 120-120-.076 0-120-15-120-15z" fill="#ffbb85"/><path id="XMLID_1358_" d="m390 195h-93.184l-41.764-3.562-41.07 18.562h-108.982v-150h150l135 15z" fill="#65b2fe"/><path id="XMLID_3930_" d="m255 60v131.461l.052-.023 41.764 18.562h108.184v-150z" fill="#467ce8"/><path id="XMLID_4337_" d="m303.184 165 56.816 15v-75l-105-15h-120v90h72.518l47.43-21.437z" fill="#ecf4fe"/><path id="XMLID_3982_" d="m255 90v68.585l48.184 21.415h71.816v-90z" fill="#d4e7fd"/></g></svg>