<svg width="48" height="48" viewBox="0 0 48 48" fill="none" xmlns="http://www.w3.org/2000/svg">
<path d="M0 24C0 10.7452 10.7452 0 24 0C37.2548 0 48 10.7452 48 24C48 37.2548 37.2548 48 24 48C10.7452 48 0 37.2548 0 24Z" fill="white"/>
<path d="M34.4695 33.2301H13.5007C12.6876 33.2301 12.0029 32.5668 12.0029 31.7323V16.5835C12.0029 15.7704 12.6662 15.0857 13.5007 15.0857H34.4695C35.2826 15.0857 35.9672 15.749 35.9672 16.5835V31.7323C35.9672 32.5668 35.304 33.2301 34.4695 33.2301Z" fill="#E3E3E3"/>
<path opacity="0.1" d="M14.999 33.2299L23.9643 26.0193L24.0284 25.6341L14.7851 18.9797L14.7637 32.909L14.999 33.2299Z" fill="#231F20"/>
<path d="M13.5007 33.2299C12.6662 33.2299 12.0029 32.5666 12.0029 31.7322V16.5619C12.0029 15.7274 12.6662 15.5776 13.5007 15.5776C14.3352 15.5776 14.9985 15.7488 14.9985 16.5619V33.2299H13.5007Z" fill="#D54B3D"/>
<path d="M13.5007 15.7916C14.5705 15.7916 14.7845 16.1126 14.7845 16.5619V33.016H13.5007C12.7946 33.016 12.2169 32.4382 12.2169 31.7322V16.5619C12.2169 16.0912 12.4309 15.7916 13.5007 15.7916ZM13.5007 15.5776C12.6662 15.5776 12.0029 15.7488 12.0029 16.5619V31.7322C12.0029 32.5666 12.6662 33.2299 13.5007 33.2299H14.9985V16.5619C14.9985 15.7274 14.3352 15.5776 13.5007 15.5776Z" fill="#D72B27"/>
<path d="M34.4695 33.2299H32.9717V16.5191C32.9717 15.6846 33.635 15.5776 34.4695 15.5776C35.3039 15.5776 35.9672 15.6846 35.9672 16.5191V31.7536C35.9672 32.5666 35.3039 33.2299 34.4695 33.2299Z" fill="#D54B3D"/>
<path d="M34.4695 15.7916C35.4323 15.7916 35.7533 15.9842 35.7533 16.5191V31.7536C35.7533 32.4596 35.1755 33.0374 34.4695 33.0374H33.1856V16.5191C33.1856 15.9628 33.5066 15.7916 34.4695 15.7916ZM34.4695 15.5776C33.635 15.5776 32.9717 15.6846 32.9717 16.5191V33.2513H34.4695C35.3039 33.2513 35.9672 32.588 35.9672 31.7536V16.5191C35.9672 15.6846 35.3039 15.5776 34.4695 15.5776Z" fill="#D72B27"/>
<path d="M28.0511 33.23L12.1289 17.1842L12.9664 17.5248L24.0499 25.5058L35.9679 16.7666L35.9679 31.7536C35.9679 32.5667 35.3046 33.23 34.4701 33.23H28.0511Z" fill="url(#paint0_linear)"/>
<path d="M23.9637 26.0193L12.6448 17.803C11.9815 17.3109 11.7889 16.3694 12.281 15.7061C12.7732 15.0428 13.736 14.893 14.4207 15.3851L23.985 22.3391L33.6136 15.2996C34.2769 14.8074 35.2183 14.9572 35.7104 15.6419C36.2026 16.3052 36.0528 17.2467 35.3681 17.7388L23.9637 26.0193Z" fill="#D54B3D"/>
<path d="M34.4697 15.214C34.8762 15.214 35.2614 15.4065 35.5181 15.7489C35.9247 16.3266 35.7963 17.1183 35.24 17.5462L23.9639 25.7625L12.7734 17.6318C12.1957 17.2039 12.0459 16.3908 12.4525 15.8345C12.6878 15.5135 13.0944 15.2996 13.5223 15.2996C13.8005 15.2996 14.0786 15.3851 14.2926 15.5563L23.8355 22.4889L23.9639 22.5744L24.0923 22.4889L33.6994 15.4493C33.9348 15.2996 34.1915 15.214 34.4697 15.214ZM34.4697 15C34.1701 15 33.8492 15.0856 33.5924 15.2782L23.9639 22.3177L14.3996 15.3637C14.1428 15.1712 13.8219 15.0856 13.5009 15.0856C13.0302 15.0856 12.5594 15.2996 12.2599 15.7061C11.7892 16.3694 11.9817 17.3108 12.645 17.803L23.9639 26.0407L35.347 17.7388C36.0102 17.2467 36.16 16.3266 35.6893 15.6419C35.3897 15.214 34.9404 15 34.4697 15Z" fill="#D72B27"/>
<defs>
<linearGradient id="paint0_linear" x1="12.1298" y1="24.9979" x2="35.9756" y2="24.9979" gradientUnits="userSpaceOnUse">
<stop stop-opacity="0.1"/>
<stop offset="1" stop-opacity="0.2"/>
</linearGradient>
</defs>
</svg>
