<svg width="48" height="48" viewBox="0 0 48 48" fill="none" xmlns="http://www.w3.org/2000/svg">
<path d="M0 24C0 10.7452 10.7452 0 24 0C37.2548 0 48 10.7452 48 24C48 37.2548 37.2548 48 24 48C10.7452 48 0 37.2548 0 24Z" fill="#0077B5"/>
<path fill-rule="evenodd" clip-rule="evenodd" d="M17.319 14.8227C17.319 16.3918 16.1378 17.6473 14.2414 17.6473H14.2066C12.3807 17.6473 11.2002 16.3918 11.2002 14.8227C11.2002 13.2204 12.4166 12 14.2772 12C16.1378 12 17.2837 13.2204 17.319 14.8227ZM16.9607 19.8778V36.2196H11.5218V19.8778H16.9607ZM36.5754 36.2196L36.5756 26.8497C36.5756 21.8303 33.8924 19.4941 30.3133 19.4941C27.4256 19.4941 26.1327 21.0802 25.4109 22.1929V19.8783H19.9713C20.043 21.4117 19.9713 36.22 19.9713 36.22H25.4109V27.0934C25.4109 26.605 25.4462 26.1178 25.59 25.7681C25.9831 24.7924 26.8781 23.7822 28.3807 23.7822C30.3496 23.7822 31.1367 25.2807 31.1367 27.4767V36.2196H36.5754Z" fill="white"/>
</svg>
